<?xml version="1.0" encoding="UTF-8"?>
<!DOCTYPE svg PUBLIC "-//W3C//DTD SVG 1.1//EN" "http://www.w3.org/Graphics/SVG/1.1/DTD/svg11.dtd">
<svg xmlns="http://www.w3.org/2000/svg" version="1.1" width="443px" height="302px" style="shape-rendering:geometricPrecision; text-rendering:geometricPrecision; image-rendering:optimizeQuality; fill-rule:evenodd; clip-rule:evenodd" xmlns:xlink="http://www.w3.org/1999/xlink">
<g><path style="opacity:1" fill="#040404" d="M -0.5,-0.5 C 147.167,-0.5 294.833,-0.5 442.5,-0.5C 442.5,100.167 442.5,200.833 442.5,301.5C 294.833,301.5 147.167,301.5 -0.5,301.5C -0.5,200.833 -0.5,100.167 -0.5,-0.5 Z"/></g>
<g><path style="opacity:1" fill="#666667" d="M 324.5,64.5 C 315.604,72.0114 315.604,79.6781 324.5,87.5C 325.13,95.2428 324.463,102.576 322.5,109.5C 312.105,105.273 304.939,97.9393 301,87.5C 298.627,73.907 303.794,64.5737 316.5,59.5C 319.167,59.1667 321.833,58.8333 324.5,58.5C 324.5,60.5 324.5,62.5 324.5,64.5 Z"/></g>
<g><path style="opacity:1" fill="#5f5f5f" d="M 119.5,59.5 C 120.822,59.33 121.989,59.6634 123,60.5C 125.124,65.0761 126.957,69.7427 128.5,74.5C 127.504,87.6562 127.171,100.99 127.5,114.5C 122.965,105.426 118.965,96.0925 115.5,86.5C 115.5,77.8333 115.5,69.1667 115.5,60.5C 117.099,60.7678 118.432,60.4345 119.5,59.5 Z"/></g>
<g><path style="opacity:1" fill="#555454" d="M 324.5,64.5 C 324.5,62.5 324.5,60.5 324.5,58.5C 321.833,58.8333 319.167,59.1667 316.5,59.5C 319.865,57.9608 323.531,57.2942 327.5,57.5C 333.634,57.6549 339.634,58.6549 345.5,60.5C 348.285,58.9107 351.285,58.4107 354.5,59C 356.073,65.3624 356.739,71.8624 356.5,78.5C 354.076,78.8076 351.743,78.4742 349.5,77.5C 344.512,66.4732 336.179,62.1399 324.5,64.5 Z"/></g>
<g><path style="opacity:1" fill="#585857" d="M 119.5,59.5 C 118.432,60.4345 117.099,60.7678 115.5,60.5C 115.5,69.1667 115.5,77.8333 115.5,86.5C 114.19,84.5654 112.857,82.5654 111.5,80.5C 110.334,99.8247 110.167,119.158 111,138.5C 111.374,139.416 111.874,140.25 112.5,141C 116.805,142.015 121.139,142.848 125.5,143.5C 126.452,145.045 126.785,146.712 126.5,148.5C 113.833,148.5 101.167,148.5 88.5,148.5C 88.178,146.278 88.8446,144.444 90.5,143C 93.5,142.667 96.5,142.333 99.5,142C 101.492,141.426 102.992,140.259 104,138.5C 104.667,116.167 104.667,93.8333 104,71.5C 101.323,67.4793 97.4895,65.3127 92.5,65C 91.5939,63.3005 91.2606,61.4672 91.5,59.5C 100.833,59.5 110.167,59.5 119.5,59.5 Z"/></g>
<g><path style="opacity:1" fill="#747576" d="M 197.5,59.5 C 190.352,60.4916 183.019,60.825 175.5,60.5C 175.5,89.5 175.5,118.5 175.5,147.5C 181.026,147.179 186.36,147.512 191.5,148.5C 180.5,148.5 169.5,148.5 158.5,148.5C 158.178,146.278 158.845,144.444 160.5,143C 163.571,142.853 166.404,142.02 169,140.5C 169.829,119.996 169.663,99.6625 168.5,79.5C 167.512,74.3595 167.179,69.0262 167.5,63.5C 167.539,62.4168 167.873,61.4168 168.5,60.5C 178.144,59.5016 187.81,59.1682 197.5,59.5 Z"/></g>
<g><path style="opacity:1" fill="#7b7c7d" d="M 197.5,59.5 C 198.5,59.5 199.5,59.5 200.5,59.5C 200.739,61.4672 200.406,63.3005 199.5,65C 196.429,65.1466 193.596,65.9799 191,67.5C 190.333,91.8333 190.333,116.167 191,140.5C 193.8,142.495 196.967,143.495 200.5,143.5C 200.5,145.167 200.5,146.833 200.5,148.5C 197.5,148.5 194.5,148.5 191.5,148.5C 186.36,147.512 181.026,147.179 175.5,147.5C 175.5,118.5 175.5,89.5 175.5,60.5C 183.019,60.825 190.352,60.4916 197.5,59.5 Z"/></g>
<g><path style="opacity:1" fill="#8f9194" d="M 207.5,59.5 C 216.424,60.0556 225.424,60.8889 234.5,62C 233.167,62.6667 233.167,63.3333 234.5,64C 231.833,64.6667 231.833,65.3333 234.5,66C 233.886,67.13 233.886,68.4634 234.5,70C 234.245,71.3261 233.578,72.3261 232.5,73C 233.167,73.3333 233.833,73.6667 234.5,74C 233.167,74.6667 233.167,75.3333 234.5,76C 231.833,76.6667 231.833,77.3333 234.5,78C 233.167,78.6667 233.167,79.3333 234.5,80C 231.833,80.6667 231.833,81.3333 234.5,82C 234.5,83.3333 234.5,84.6667 234.5,86C 231.833,86.6667 231.833,87.3333 234.5,88C 233.167,88.6667 233.167,89.3333 234.5,90C 231.833,90.6667 231.833,91.3333 234.5,92C 233.167,92.6667 233.167,93.3333 234.5,94C 231.833,94.6667 231.833,95.3333 234.5,96C 233.167,96.6667 233.167,97.3333 234.5,98C 231.833,98.6667 231.833,99.3333 234.5,100C 233.167,100.667 233.167,101.333 234.5,102C 231.833,102.667 231.833,103.333 234.5,104C 233.167,104.667 233.167,105.333 234.5,106C 231.833,106.667 231.833,107.333 234.5,108C 233.167,108.667 233.167,109.333 234.5,110C 231.833,110.667 231.833,111.333 234.5,112C 233.167,112.667 233.167,113.333 234.5,114C 233.906,114.464 233.239,114.631 232.5,114.5C 226.067,99.3863 219.9,84.0529 214,68.5C 211.242,66.357 208.076,65.1903 204.5,65C 203.594,63.3005 203.261,61.4672 203.5,59.5C 204.833,59.5 206.167,59.5 207.5,59.5 Z"/></g>
<g><path style="opacity:1" fill="#656565" d="M 128.5,74.5 C 133.798,86.436 139.131,98.436 144.5,110.5C 142.897,110.312 141.563,110.812 140.5,112C 141.833,121.333 141.833,130.667 140.5,140C 141.308,141.706 142.641,142.539 144.5,142.5C 144.205,144.423 143.372,146.09 142,147.5C 136.605,136.713 131.771,125.713 127.5,114.5C 127.171,100.99 127.504,87.6562 128.5,74.5 Z"/></g>
<g><path style="opacity:1" fill="#87888b" d="M 207.5,59.5 C 220.5,59.5 233.5,59.5 246.5,59.5C 246.739,61.4672 246.406,63.3005 245.5,65C 242.097,65.1004 238.93,65.9337 236,67.5C 235.833,68.3333 235.667,69.1667 235.5,70C 242.032,87.5616 248.699,105.062 255.5,122.5C 256.183,122.137 256.85,121.804 257.5,121.5C 258.483,125.298 258.817,129.298 258.5,133.5C 257.387,139.342 255.387,144.842 252.5,150C 250.5,150.667 248.5,150.667 246.5,150C 241.538,138.278 236.871,126.445 232.5,114.5C 233.239,114.631 233.906,114.464 234.5,114C 233.167,113.333 233.167,112.667 234.5,112C 231.833,111.333 231.833,110.667 234.5,110C 233.167,109.333 233.167,108.667 234.5,108C 231.833,107.333 231.833,106.667 234.5,106C 233.167,105.333 233.167,104.667 234.5,104C 231.833,103.333 231.833,102.667 234.5,102C 233.167,101.333 233.167,100.667 234.5,100C 231.833,99.3333 231.833,98.6667 234.5,98C 233.167,97.3333 233.167,96.6667 234.5,96C 231.833,95.3333 231.833,94.6667 234.5,94C 233.167,93.3333 233.167,92.6667 234.5,92C 231.833,91.3333 231.833,90.6667 234.5,90C 233.167,89.3333 233.167,88.6667 234.5,88C 231.833,87.3333 231.833,86.6667 234.5,86C 234.5,84.6667 234.5,83.3333 234.5,82C 231.833,81.3333 231.833,80.6667 234.5,80C 233.167,79.3333 233.167,78.6667 234.5,78C 231.833,77.3333 231.833,76.6667 234.5,76C 233.167,75.3333 233.167,74.6667 234.5,74C 233.833,73.6667 233.167,73.3333 232.5,73C 233.578,72.3261 234.245,71.3261 234.5,70C 233.886,68.4634 233.886,67.13 234.5,66C 231.833,65.3333 231.833,64.6667 234.5,64C 233.167,63.3333 233.167,62.6667 234.5,62C 225.424,60.8889 216.424,60.0556 207.5,59.5 Z"/></g>
<g><path style="opacity:1" fill="#78787a" d="M 258.5,133.5 C 258.817,129.298 258.483,125.298 257.5,121.5C 262.992,104.332 268.658,87.1656 274.5,70C 274.241,68.7387 273.574,67.7387 272.5,67C 269.247,65.9635 265.914,65.2969 262.5,65C 261.594,63.3005 261.261,61.4672 261.5,59.5C 272.5,59.5 283.5,59.5 294.5,59.5C 294.739,61.4672 294.406,63.3005 293.5,65C 288.079,64.3307 283.913,66.164 281,70.5C 273.568,91.6362 266.068,112.636 258.5,133.5 Z"/></g>
<g><path style="opacity:1" fill="#595857" d="M 324.5,87.5 C 335.201,92.7048 345.534,98.5382 355.5,105C 365.252,116.117 366.086,127.95 358,140.5C 352.071,146.424 344.904,149.757 336.5,150.5C 336.577,149.25 337.244,148.417 338.5,148C 335.833,147.333 335.833,146.667 338.5,146C 336.975,144.991 335.308,144.491 333.5,144.5C 342.225,141.597 345.725,135.597 344,126.5C 342.6,123.098 340.433,120.264 337.5,118C 332.73,114.619 327.73,111.786 322.5,109.5C 324.463,102.576 325.13,95.2428 324.5,87.5 Z"/></g>
<g><path style="opacity:1" fill="#6b6c6c" d="M 167.5,63.5 C 167.179,69.0262 167.512,74.3595 168.5,79.5C 160.495,100.516 152.495,121.516 144.5,142.5C 142.641,142.539 141.308,141.706 140.5,140C 141.833,130.667 141.833,121.333 140.5,112C 141.563,110.812 142.897,110.312 144.5,110.5C 145.32,112.14 146.153,113.807 147,115.5C 153.567,97.9484 160.4,80.6151 167.5,63.5 Z"/></g>
<g><path style="opacity:1" fill="#262626" d="M 299.5,127.5 C 299.701,133.509 300.034,139.509 300.5,145.5C 298.595,139.557 298.262,133.557 299.5,127.5 Z"/></g>
<g><path style="opacity:1" fill="#636364" d="M 333.5,144.5 C 335.308,144.491 336.975,144.991 338.5,146C 335.833,146.667 335.833,147.333 338.5,148C 337.244,148.417 336.577,149.25 336.5,150.5C 332.818,150.665 329.152,150.499 325.5,150C 320.858,148.397 316.192,146.897 311.5,145.5C 309.312,145.307 307.645,146.141 306.5,148C 304.527,148.495 302.527,148.662 300.5,148.5C 300.5,147.5 300.5,146.5 300.5,145.5C 300.034,139.509 299.701,133.509 299.5,127.5C 301.772,126.236 304.105,126.402 306.5,128C 311.681,139.597 320.681,145.097 333.5,144.5 Z"/></g>
<g><path style="opacity:1" fill="#858689" d="M 233.5,167.5 C 240.175,167.334 246.842,167.5 253.5,168C 253.5,192 253.5,216 253.5,240C 252.429,240.852 251.429,241.685 250.5,242.5C 244.804,242.447 239.138,242.78 233.5,243.5C 233.261,241.533 233.594,239.699 234.5,238C 236.764,237.764 238.931,237.264 241,236.5C 241.667,215.5 241.667,194.5 241,173.5C 238.772,171.887 236.272,171.22 233.5,171.5C 233.5,170.167 233.5,168.833 233.5,167.5 Z"/></g>
<g><path style="opacity:1" fill="#7f8082" d="M 233.5,167.5 C 244.988,166.505 256.655,166.172 268.5,166.5C 269.952,167.302 271.618,167.802 273.5,168C 272.167,168.667 272.167,169.333 273.5,170C 269.312,170.176 265.312,170.676 261.5,171.5C 260.883,171.611 260.383,171.944 260,172.5C 259.5,181.827 259.334,191.161 259.5,200.5C 278.052,203.04 278.052,205.04 259.5,206.5C 259.334,216.172 259.5,225.839 260,235.5C 262.042,237.604 264.542,238.771 267.5,239C 269.118,241.8 268.285,243.3 265,243.5C 260.205,242.642 255.372,242.309 250.5,242.5C 251.429,241.685 252.429,240.852 253.5,240C 253.5,216 253.5,192 253.5,168C 246.842,167.5 240.175,167.334 233.5,167.5 Z"/></g>
<g><path style="opacity:1" fill="#727374" d="M 268.5,166.5 C 275.175,166.334 281.842,166.5 288.5,167C 290.65,172.227 291.316,177.561 290.5,183C 289.167,183.667 287.833,183.667 286.5,183C 281.27,172.722 272.937,168.888 261.5,171.5C 265.312,170.676 269.312,170.176 273.5,170C 272.167,169.333 272.167,168.667 273.5,168C 271.618,167.802 269.952,167.302 268.5,166.5 Z"/></g>
<g><path style="opacity:1" fill="#616161" d="M 324.5,166.5 C 328.298,167.483 332.298,167.817 336.5,167.5C 335.849,191.896 336.516,216.062 338.5,240C 336.389,240.845 334.389,241.678 332.5,242.5C 326.963,242.288 321.463,242.622 316,243.5C 312.715,243.3 311.882,241.8 313.5,239C 316.308,238.402 318.808,237.235 321,235.5C 321.5,214.169 321.667,192.836 321.5,171.5C 311.923,169.286 305.59,172.786 302.5,182C 300.866,182.494 299.199,182.66 297.5,182.5C 298.263,176.85 299.596,171.35 301.5,166C 309.142,166.206 316.809,166.372 324.5,166.5 Z"/></g>
<g><path style="opacity:1" fill="#060607" d="M 187.5,169.5 C 196.106,171.969 201.606,177.636 204,186.5C 209.268,202.983 208.268,218.983 201,234.5C 194.445,240.757 187.612,241.091 180.5,235.5C 170.316,218.7 167.816,200.7 173,181.5C 175.315,174.344 180.148,170.344 187.5,169.5 Z"/></g>
<g><path style="opacity:1" fill="#858789" d="M 199.5,166.5 C 204.596,167.546 208.929,169.879 212.5,173.5C 211.167,194.167 211.167,214.833 212.5,235.5C 204.199,243.624 194.199,246.624 182.5,244.5C 181.791,243.596 180.791,243.263 179.5,243.5C 179.194,240.615 179.527,237.948 180.5,235.5C 187.612,241.091 194.445,240.757 201,234.5C 208.268,218.983 209.268,202.983 204,186.5C 201.606,177.636 196.106,171.969 187.5,169.5C 187.5,168.167 187.5,166.833 187.5,165.5C 191.5,165.833 195.5,166.167 199.5,166.5 Z"/></g>
<g><path style="opacity:1" fill="#595858" d="M 332.5,242.5 C 334.389,241.678 336.389,240.845 338.5,240C 336.516,216.062 335.849,191.896 336.5,167.5C 332.298,167.817 328.298,167.483 324.5,166.5C 336.022,166.757 347.522,166.424 359,165.5C 360.728,165.454 362.228,165.954 363.5,167C 361.808,171.745 360.308,176.579 359,181.5C 357.333,182.833 355.667,182.833 354,181.5C 355.504,174.007 352.504,170.673 345,171.5C 342.906,171.536 340.906,171.869 339,172.5C 338.333,193.167 338.333,213.833 339,234.5C 339.374,235.416 339.874,236.25 340.5,237C 342.788,237.822 345.122,238.489 347.5,239C 348.337,240.011 348.67,241.178 348.5,242.5C 343.167,242.5 337.833,242.5 332.5,242.5 Z"/></g>
<g><path style="opacity:1" fill="#727374" d="M 199.5,166.5 C 195.5,166.167 191.5,165.833 187.5,165.5C 187.5,166.833 187.5,168.167 187.5,169.5C 180.148,170.344 175.315,174.344 173,181.5C 167.816,200.7 170.316,218.7 180.5,235.5C 179.527,237.948 179.194,240.615 179.5,243.5C 180.791,243.263 181.791,243.596 182.5,244.5C 166.188,241.021 156.355,231.021 153,214.5C 148.963,194.425 155.463,178.925 172.5,168C 181.431,164.014 190.431,163.514 199.5,166.5 Z"/></g>
<g><path style="opacity:1" fill="#595858" d="M 118.5,195.5 C 117.5,195.5 116.5,195.5 115.5,195.5C 115.5,201.167 115.5,206.833 115.5,212.5C 107.827,209.575 100.993,205.242 95,199.5C 85.5239,182.965 89.6906,171.465 107.5,165C 114.888,164.046 122.054,164.879 129,167.5C 131.589,166.014 134.423,165.347 137.5,165.5C 138.074,171.484 138.407,177.484 138.5,183.5C 133.552,183.733 130.385,181.399 129,176.5C 124.099,170.198 117.932,168.365 110.5,171C 103.619,177.971 103.952,184.638 111.5,191C 113.993,192.419 116.326,193.919 118.5,195.5 Z"/></g>
<g><path style="opacity:1" fill="#8b8d90" d="M 212.5,173.5 C 223.739,184.447 227.905,197.781 225,213.5C 223.51,222.458 219.344,229.791 212.5,235.5C 211.167,214.833 211.167,194.167 212.5,173.5 Z"/></g>
<g><path style="opacity:1" fill="#707172" d="M 259.5,206.5 C 278.052,205.04 278.052,203.04 259.5,200.5C 265.509,200.666 271.509,200.499 277.5,200C 279.432,198.648 280.766,196.815 281.5,194.5C 282.689,193.571 284.022,193.238 285.5,193.5C 285.5,200.167 285.5,206.833 285.5,213.5C 284.022,213.762 282.689,213.429 281.5,212.5C 280.699,209.867 279.033,208.033 276.5,207C 270.843,206.501 265.176,206.334 259.5,206.5 Z"/></g>
<g><path style="opacity:1" fill="#636363" d="M 118.5,195.5 C 129.126,198.222 137.292,204.222 143,213.5C 147.079,227.335 142.579,237.001 129.5,242.5C 127.586,239.316 126.92,235.649 127.5,231.5C 127.837,227.692 127.337,224.026 126,220.5C 122.701,217.449 119.201,214.782 115.5,212.5C 115.5,206.833 115.5,201.167 115.5,195.5C 116.5,195.5 117.5,195.5 118.5,195.5 Z"/></g>
<g><path style="opacity:1" fill="#555555" d="M 127.5,231.5 C 126.92,235.649 127.586,239.316 129.5,242.5C 128.391,243.29 127.058,243.79 125.5,244C 120.167,244.667 114.833,244.667 109.5,244C 106.576,242.119 103.409,240.952 100,240.5C 97.1247,242.096 93.958,243.096 90.5,243.5C 89.7403,237.196 89.407,230.863 89.5,224.5C 91.5273,224.338 93.5273,224.505 95.5,225C 101.271,237.584 110.605,241.584 123.5,237C 125.469,235.5 126.802,233.667 127.5,231.5 Z"/></g>
</svg>
